<?xml version="1.0" encoding="UTF-8" standalone="no"?>
<svg width="500px" height="500px" viewBox="0 0 500 500" version="1.1" xmlns="http://www.w3.org/2000/svg" xmlns:xlink="http://www.w3.org/1999/xlink">
    <!-- Generator: Sketch 39.1 (31720) - http://www.bohemiancoding.com/sketch -->
    <title>TOR</title>
    <desc>Created with Sketch.</desc>
    <defs>
        <polygon id="path-1" points="0 499.947917 500 499.947917 500 0 0 0"></polygon>
    </defs>
    <g id="NBA" stroke="none" stroke-width="1" fill="none" fill-rule="evenodd">
        <g id="TOR">
            <g id="TRaptors_pms">
                <g id="Group-3">
                    <mask id="mask-2" fill="white">
                        <use xlink:href="#path-1"></use>
                    </mask>
                    <g id="Clip-2"></g>
                    <path d="M500,249.999132 C500,388.078993 388.069444,500 249.999132,500 C111.920139,500 0,388.078993 0,249.999132 C0,111.928819 111.920139,0 249.999132,0 C388.069444,0 500,111.928819 500,249.999132" id="Fill-1" fill="#B02534" mask="url(#mask-2)"></path>
                </g>
                <path d="M249.948785,487.007813 C187.194444,487.007813 128.036458,462.702257 83.3871528,418.56684 C38.6927083,374.395833 13.7065972,315.455729 13.0078125,252.618056 C12.3098958,189.322917 36.2977431,129.532986 80.5685764,84.2751736 C124.836806,39.0251736 184.075521,13.7135417 247.373264,13.0164931 C248.263021,13.0078125 249.161458,12.9930556 250.049479,12.9930556 C312.804688,12.9930556 371.953125,37.3038194 416.613715,81.4418403 C461.307292,125.610243 486.293403,184.542535 486.991319,247.380208 C487.688368,310.684896 463.692708,370.47309 419.429688,415.732639 C375.163194,460.991319 315.922743,486.293403 252.609375,486.991319 C251.728299,487 250.831597,487.007813 249.948785,487.007813" id="Fill-4" fill="#262420"></path>
                <path d="M249.258681,46.7369792 L246.774306,49.2239583 L246.774306,79.4288194 L249.258681,81.9131944 L257.680556,81.9131944 L260.164931,79.4288194 L260.164931,49.2239583 L257.680556,46.7369792 L249.258681,46.7369792 L249.258681,46.7369792 Z M273.28125,87.2664931 L265.068576,95.5625 L241.960938,95.5625 L233.657986,87.2664931 L233.657986,41.4930556 L241.960938,33.1901042 L264.986979,33.1901042 L273.28125,41.4930556 L273.28125,87.2664931 L273.28125,87.2664931 Z" id="Fill-5" fill="#FFFFFF"></path>
                <path d="M433.270833,156.072917 L429.954861,154.909722 L402.707465,167.942708 L401.53559,171.259549 L405.168403,178.84809 L408.482639,180.011285 L435.740451,166.980035 L436.902778,163.662326 L433.270833,156.072917 L433.270833,156.072917 Z M407.071181,195.223958 L396.049479,191.407986 L386.076389,170.561632 L389.980903,159.497396 L431.267361,139.742188 L442.330729,143.646701 L452.263889,164.40191 L448.356771,175.481771 L407.071181,195.223958 L407.071181,195.223958 Z" id="Fill-6" fill="#FFFFFF"></path>
                <path d="M105.020833,110.832465 L105.071181,114.337674 L126.733507,135.401042 L130.240451,135.352431 L136.117188,129.309028 L136.06684,125.801215 L114.407118,104.747396 L110.898438,104.797743 L105.020833,110.832465 L105.020833,110.832465 Z M150.821181,121.861979 L151.053819,133.532118 L134.953993,150.105035 L123.208333,150.263889 L90.3923611,118.361979 L90.2248264,106.625868 L106.27691,90.1276042 L118.00434,89.9609375 L150.821181,121.861979 L150.821181,121.861979 Z" id="Fill-7" fill="#FFFFFF"></path>
                <polyline id="Fill-8" fill="#FFFFFF" points="358.237847 59.6032986 333.93316 116.93316 323.96875 112.676215 321.333333 71.9991319 307.136285 105.536458 296.247396 100.948785 320.569444 43.6388889 334.033854 49.3472222 334.200521 85.0390625 347.009549 54.8255208 358.237847 59.6032986"></polyline>
                <path d="M172.556424,78.3489583 L182.389757,74.0668403 C182.473958,74.0347222 183.685764,70.8185764 183.685764,70.8185764 L180.296875,63.0295139 L177.029514,61.7413194 L167.194444,66.0121528 L172.556424,78.3489583 L172.556424,78.3489583 Z M197.983507,72.671875 L195.215278,82.3628472 L212.595486,99.5199653 L200.485243,104.789062 L184.352431,89.3116319 L178.465278,91.921875 L186.671007,110.797743 L175.574653,115.618924 L150.770833,58.4010417 L177.444444,46.7960069 L188.715278,51.3671875 L197.983507,72.671875 L197.983507,72.671875 Z" id="Fill-9" fill="#FFFFFF"></path>
                <polyline id="Fill-10" fill="#FFFFFF" points="407.003472 115.420139 398.90191 107.458333 364.573785 142.374132 355.262153 133.224826 389.590278 98.3055556 381.479167 90.3350694 390.888021 80.7664931 416.414931 105.853299 407.003472 115.420139"></polyline>
                <polyline id="Fill-11" fill="#FFFFFF" points="74.5842014 150.970486 69.9444444 161.335938 114.639757 181.342882 109.302951 193.253472 64.6085069 173.263021 59.9704861 183.62934 47.7274306 178.151042 62.3489583 145.493056 74.5842014 150.970486"></polyline>
                <path d="M416.197917,310.060764 L410.038194,321.772569 L405.716146,319.505208 L404.502604,321.797743 L400.604167,329.204861 L401.675347,332.521701 L407.794271,335.755208 L407.021701,335.330729 L410.37066,334.324653 L417.693576,320.393229 L429.190104,316.944444 L447.907118,326.78559 L451.390625,337.998264 L440.644097,358.454861 C440.644097,358.454861 429.347222,361.902778 429.273438,361.862847 L419.904514,356.934028 L426.005208,345.320312 L430.743924,347.815104 L435.822049,338.138889 L434.776042,334.78125 L429.854167,332.179688 L426.446181,333.210069 L419.264757,346.884549 L407.662326,350.408854 L407.619792,350.484375 L388.893229,340.642361 L385.236979,329.221354 L395.984375,308.764757 L407.37934,305.482639 L416.197917,310.060764" id="Fill-12" fill="#FFFFFF"></path>
                <path d="M88.4887153,328.007812 L93.4427083,337.516493 C93.4861111,337.599826 96.7847222,338.579861 96.7847222,338.579861 L104.314236,334.658854 L105.369792,331.315104 L100.415799,321.797743 L88.4887153,328.007812 L88.4887153,328.007812 Z M95.9201389,352.976562 L86.0694444,350.890625 L70.1710069,369.427083 L64.0772569,357.716146 L78.3732639,340.532986 L75.3645833,334.84809 L57.1119792,344.349826 L51.5182292,333.618056 L106.874132,304.883681 L120.307292,330.684028 L116.533854,342.244792 L95.9201389,352.976562 L95.9201389,352.976562 Z" id="Fill-13" fill="#FFFFFF"></path>
                <path d="M182.175347,417.161458 L190.983507,420.819444 C191.059028,420.853299 194.193576,419.480035 194.193576,419.480035 L197.451389,411.633681 L196.144965,408.40191 L187.335938,404.743924 L182.175347,417.161458 L182.175347,417.161458 Z M177.545139,428.30816 L168.557292,449.819444 L157.728299,445.322049 L181.666667,387.728299 L208.006944,398.675347 L212.380208,409.971354 L203.659722,430.952257 L194.958333,435.573785 L177.545139,428.30816 L177.545139,428.30816 Z" id="Fill-14" fill="#FFFFFF"></path>
                <polyline id="Fill-15" fill="#FFFFFF" points="272.059028 417.576389 260.696181 417.710069 261.246528 466.669271 248.1875 466.80816 247.637153 417.853299 236.283854 417.967014 236.134549 404.560764 271.918403 404.163194 272.059028 417.576389"></polyline>
                <path d="M307.659722,408.574653 L306.22309,411.776042 L316.944444,440.027778 L320.136285,441.466146 L328.015625,438.47309 L329.453125,435.275174 L318.737847,407.028646 L315.539931,405.583333 L307.659722,408.574653 L307.659722,408.574653 Z M344.491319,437.951389 L339.769097,448.622396 L318.166667,456.819444 L307.460069,451.996528 L291.21875,409.21441 L296.039931,398.509549 L317.551215,390.338542 L328.256076,395.15191 L344.491319,437.951389 L344.491319,437.951389 Z" id="Fill-16" fill="#FFFFFF"></path>
                <path d="M367.489583,390.414062 L375.659722,383.46441 C375.727431,383.407118 375.950521,379.982639 375.950521,379.982639 L370.447917,373.507813 L366.957465,373.225694 L358.787326,380.164062 L367.489583,390.414062 L367.489583,390.414062 Z M390.172743,377.613715 L390.338542,387.677951 L411.940972,399.05816 L401.884549,407.619792 L381.952257,397.494792 L377.072049,401.693576 L390.405382,417.369792 L381.188368,425.207465 L340.858507,377.638889 L363.009549,358.803819 L375.12934,359.908854 L390.172743,377.613715 L390.172743,377.613715 Z" id="Fill-17" fill="#FFFFFF"></path>
                <path d="M126.407986,399.190972 L134.945312,381.920139 L118.387153,391.802951 L126.407986,399.190972 L126.407986,399.190972 Z M126.059028,428.766493 L116.310764,419.789063 L120.832465,410.596354 L107.490451,398.317708 L98.6875,403.578993 L88.9375,394.602431 L145.302083,360.822049 L155.052083,369.791667 L126.059028,428.766493 L126.059028,428.766493 Z" id="Fill-18" fill="#FFFFFF"></path>
                <path d="M298.583333,375.260417 C298.790799,375.517361 298.940972,375.841146 299.073785,375.835069 C299.771701,375.794271 301.159722,375.577257 301.159722,375.577257 L302.556424,374.978299 L306.480035,373.448785 C306.480035,373.448785 316.271701,368.78559 316.303819,368.753472 C316.345486,368.720486 318.026042,367.838542 318.026042,367.838542 L318.914063,367.447917 L319.969618,366.732639 L321.707465,365.651042 L323.77691,364.514757 L326.436632,362.776042 L331.05816,359.526042 L333.319444,357.741319 L336.568576,355.388021 L339.528646,353.185764 L340.925347,352.161458 L342.877604,350.342014 L344.915799,348.322049 L348.181424,344.823785 L351.996528,341.157118 L356.40191,336.078993 L358.8125,332.845486 L359.66059,331.689236 L362.24566,328.489583 L367.297743,321.233507 L368.710069,318.856771 L372.109375,312.173611 L374.023438,308.532986 L377.298611,301.900174 L379.067708,297.868056 L380.986979,291.684028 C380.986979,291.684028 383.257813,283.520833 384.486979,279.249132 C384.627604,278.758681 384.686632,278.317708 384.37066,277.87934 C383.672743,276.896701 383.157118,275.65191 382.500868,274.545139 C382.16059,273.962674 381.668403,273.388889 381.354167,272.905382 C381.030382,272.434028 380.172743,271.354167 379.840278,270.962674 C379.484375,270.546875 379.051215,270.189236 378.611111,269.856771 C377.555556,268.866319 376.633681,267.87934 375.743924,267.230035 C375.327257,267.006076 374.946181,266.698785 374.5625,266.407118 C371.810764,264.295139 369.019097,262.592882 365.886285,261.230035 C364.578993,260.664062 363.225694,260.180556 361.862847,259.717014 C360.897569,259.391493 359.376736,259.018229 358.372396,258.852431 C357.796875,258.751736 357.333333,258.735243 356.900174,259.033854 C356.46875,259.326389 356.450521,259.990451 356.376736,260.638889 C356.193576,262.335938 356.127604,264.21441 355.985243,265.916667 C355.828125,267.688368 355.703125,269.457465 355.560764,271.228299 C355.429688,272.824653 355.354167,274.436632 355.145833,276.024306 C354.897569,278.127604 354.605903,280.230903 354.207465,282.317708 C353.46875,286.216146 352.636285,290.095486 351.822049,293.986979 C351.597222,295.050347 351.446181,296.164062 351.023438,297.161458 C350.30816,298.799479 349.802951,300.512153 349.46875,302.256076 C348.753472,305.947049 347.400174,309.421007 346.143229,312.921007 C345.113715,315.772569 344.099826,318.665799 342.480035,321.267361 C342.361111,321.432292 342.303819,321.640625 342.230035,321.822917 C341.466146,323.619792 340.740451,325.430556 339.918403,327.210069 C339.402778,328.363715 338.664063,329.419271 338.172743,330.575521 C337.55816,332.046875 336.735243,333.377604 335.887153,334.705729 C334.524306,336.801215 333.094618,338.854167 331.922743,341.06684 C331.099826,342.611111 330.168403,344.06684 329.145833,345.480035 C328.881076,345.845486 328.646701,346.21875 328.397569,346.585069 C327.583333,347.773438 326.827257,349.010417 325.938368,350.133681 C324.225694,352.3125 322.455729,354.455729 320.65191,356.559896 C319.521701,357.880208 318.274306,359.094618 317.085938,360.358507 C316.005208,361.498264 314.925347,362.644965 313.834201,363.789931 C313.602431,364.03125 313.3125,364.222222 313.055556,364.439236 C312.405382,364.99566 311.716146,365.512153 311.118056,366.118056 C309.703993,367.523438 308.257812,368.877604 306.597222,369.982639 C305.881944,370.457465 305.158854,370.9375 304.508681,371.478299 C302.764757,372.982639 300.78559,374.122396 298.583333,375.260417" id="Fill-19" fill="#828382"></path>
                <path d="M386.108507,270.455729 C386.176215,270.455729 386.207465,270.329861 386.223958,270.172743 C386.266493,269.831597 386.31684,269.242188 386.31684,269.242188 L387.273438,260.722222 L387.845486,252.733507 L387.87066,244.822049 L387.854167,243.582465 L386.914063,234.606771 C386.914063,234.606771 385.817708,226.518229 384.976562,222.361979 C384.671875,220.873264 383.764757,220.125868 382.559896,219.545139 C382.168403,219.353299 381.728299,219.137153 381.295139,219.013021 C380.415799,218.737847 379.44184,218.313368 378.552951,218.080729 C376.532986,217.574653 374.612847,216.909722 372.559028,216.560764 C370.140625,216.145833 367.680556,215.887153 365.230035,215.671007 C363.225694,215.487847 361.204861,215.414062 359.186632,215.388889 C357.573785,215.363715 356.610243,215.338542 354.996528,215.338542 C354.131944,215.338542 353.21875,215.372396 352.828125,215.894097 C352.434896,216.434896 352.71875,217.399306 352.859375,218.356771 C353.16059,220.317708 353.500868,221.297743 353.824653,223.242188 C354.788194,229.013021 355.828125,234.770833 356.044271,240.631944 C356.144965,243.258681 356.301215,245.893229 356.408854,248.519965 C356.443576,249.268229 356.434028,249.758681 356.450521,250.514757 C356.46875,250.96441 356.567708,251.462674 356.776042,251.786458 C357.009549,252.151042 357.374132,252.210069 357.806424,252.34375 C358.305556,252.501736 358.787326,252.550347 359.286458,252.666667 C359.783854,252.792535 360.724826,252.983507 361.362847,253.182292 C363.699653,253.939236 366.184028,254.771701 368.445313,255.69184 C370.05816,256.332465 371.553819,257.263021 373.099826,258.070312 C373.284722,258.171007 373.448785,258.286458 373.615451,258.411458 C374.513021,259.084201 375.420139,259.756944 376.315972,260.422743 C378.428819,261.978299 380.613715,263.488715 382.243924,265.625868 C382.551215,266.032986 382.916667,266.407118 383.298611,266.749132 C383.938368,267.313368 385.010417,269.334201 385.782986,270.248264 C385.918403,270.405382 386.042535,270.455729 386.108507,270.455729" id="Fill-20" fill="#828382"></path>
                <path d="M326.045139,174.709201 C326.84375,174.651042 327.567708,174.634549 328.182292,174.560764 C328.640625,174.501736 329.072049,174.485243 329.280382,174.011285 C329.469618,173.536458 329.104167,173.020833 329.003472,172.797743 C328.830729,172.407118 327.292535,169.688368 327.292535,169.688368 L325.796875,167.354167 L319.480035,158.235243 L318.166667,156.689236 L316.944444,155.034722 L314.875,152.749132 L309.75434,147.139757 L307.560764,144.978299 L299.638889,137.646701 L293.130208,132.633681 L290.796007,131.395833 L283.172743,126.740451 L277.837674,123.849826 L276.797743,123.424479 L272.459201,121.836806 L266.007813,119.426215 L265.501736,119.309896 L263.432292,118.795139 L262.875,118.703993 L261.063368,118.236979 L257.222222,117.530382 L255.394097,117.463542 L251.969618,116.832465 L247.872396,116.568576 L246.443576,116.392361 L243.873264,116.350694 L239.577257,116.474826 L235.328993,116.949653 L232.046875,117.024306 L229.135417,117.34809 L226.152778,117.947049 L223.900174,118.644965 L220.225694,119.350694 L219.402778,119.335937 L215.978299,120.557292 L213.958333,121.123264 L212.721354,121.87066 L209.736979,122.685764 L208.297743,123.515625 L206.494792,124.204861 L202.064236,126.059028 L196.427951,128.25434 L194.574653,129.144097 L190.627604,131.270833 L187.201389,133.522569 L184.003472,135.177083 L182.838542,135.850694 L179.331597,137.712674 L178.767361,138.079861 L174.783854,141.203993 L171.485243,143.440104 L170.835069,143.863715 L167.095486,146.814236 L165.733507,147.944444 C165.733507,147.944444 163.729167,149.664931 163.671875,149.907118 L165.084201,149.490451 C165.084201,149.490451 167.652778,148.543403 167.703125,148.559896 C167.753472,148.575521 168.201389,148.59375 168.201389,148.59375 L171.909722,147.096354 L172.448785,147.096354 L176.50434,145.493056 C176.50434,145.493056 178.625,144.794271 178.625,144.84375 C178.625,144.894097 180.786458,144.046007 180.786458,144.046007 L183.802951,142.974826 L191.092882,140.171875 L191.756944,140.139757 L195.497396,138.84375 L198.456597,137.621528 L198.871528,137.935764 C198.871528,137.935764 204.549479,138.070312 204.599826,138.070312 C204.616319,138.070312 208.249132,138.352431 208.249132,138.352431 L208.364583,138.427951 L215.721354,139 L215.796875,138.943576 L225.969618,139.474826 L226.019965,139.72309 L229.627604,142.817708 L229.892361,142.807292 L233.567708,146.357639 L233.907986,146.190104 L238.969618,146.341146 L239.21875,146.157986 L251.927951,146.898437 L252.003472,147.189236 L257.664062,150.472222 L257.912326,150.428819 L267.911458,155.300347 L267.986979,155.832465 L273.657118,153.623264 L281.96875,156.421875 L283.380208,158.724826 L286.423611,158.925347 L289.356771,162.240451 L289.664062,162.258681 L292.024306,164.951389 L292.05816,165.125868 L292.390625,165.125868 L298.948785,166.621528 L301.366319,170.346354 L307.434896,172.556424 C307.434896,172.556424 313.934896,174.211806 317.267361,174.634549 C320.228299,175.008681 323.743056,174.850694 326.045139,174.709201" id="Fill-21" fill="#828382"></path>
                <path d="M382.608507,213.185764 C382.418403,212.221354 381.728299,210.251736 381.728299,210.251736 L381.354167,209.203993 L381.012153,207.923611 L379.932292,204.723958 L378.944444,201.921875 L375.826389,194.982639 L374.412326,191.574653 L372.634549,187.634549 L370.506944,184.144097 L368.587674,180.277778 L367.264757,178.125868 L366.716146,177.385417 L357.631944,165.084201 C357.631944,165.084201 356.750868,164.045139 356.309028,163.522569 C356.102431,163.25434 356.02691,163.047743 355.743924,163.047743 C355.720486,163.047743 355.703125,163.056424 355.677951,163.056424 C355.677951,163.056424 352.884549,167.636285 351.712674,168.931424 C350.551215,170.212674 348.21441,172.357639 348.21441,172.357639 C348.21441,172.357639 346.243924,173.978299 345.911458,174.226562 C345.578993,174.485243 344.075521,175.473958 344.075521,175.473958 L342.005208,176.662326 C342.005208,176.662326 340.434028,177.394097 340.177083,177.485243 C339.918403,177.585069 339.627604,177.701389 339.470486,177.901042 C339.310764,178.109375 339.253472,178.267361 339.319444,178.616319 C339.386285,178.889757 339.478299,179.15625 339.587674,179.398437 C340.425347,181.159722 341.189236,182.953993 342.104167,184.666667 C343.484375,187.210069 344.365451,189.953993 345.505208,192.597222 C345.886285,193.467882 346.269097,194.359375 346.567708,195.256076 C347.340278,197.601562 348.065104,199.952257 348.8125,202.304688 C349.136285,203.345486 349.485243,204.384549 349.78559,205.430556 C350.085069,206.486111 350.324653,207.540799 350.606771,208.606771 C350.791667,209.303819 351.256944,209.62066 351.963542,209.611979 C352.644965,209.603299 353.333333,209.570312 354.014757,209.545139 C356.450521,209.479167 358.878472,209.394097 361.313368,209.363715 C362.012153,209.345486 366.875868,209.793403 366.875868,209.793403 C366.875868,209.793403 368.619792,209.969618 369.452257,210.111111 C371.305556,210.451389 373.142361,210.865451 374.986979,211.249132 C376.525174,211.565104 378.121528,212.105035 379.56684,212.762153 C380.264757,213.077257 381.021701,213.284722 381.794271,213.510417 C382.03559,213.575521 382.418403,213.625868 382.475694,213.600694 C382.534722,213.575521 382.633681,213.302083 382.608507,213.185764" id="Fill-22" fill="#828382"></path>
                <path d="M350.833333,158.93316 C350.766493,158.575521 350.118056,157.594618 350.118056,157.594618 L349.65191,156.770833 L348.338542,155.258681 L347.450521,153.979167 L345.795139,152.350694 C345.795139,152.350694 345.429688,152.033854 345.238715,151.892361 C342.345486,149.533854 336.552951,144.853299 336.544271,144.836806 C336.544271,144.818576 334.940972,143.555556 334.940972,143.555556 L331.939236,140.928819 L316.884549,131.903646 L305.017361,126.275174 C305.017361,126.275174 298.715278,123.805556 298.709201,123.824653 C298.700521,123.832465 296.422743,123.001736 296.397569,123.017361 C296.355903,123.02691 288.641493,120.349826 288.641493,120.349826 L283.165799,118.960938 L277.854167,117.8125 L277.021701,117.740451 L276.547743,118.203993 L276.756944,118.4375 C276.756944,118.4375 277.296875,118.703993 277.545139,118.811632 C279.19184,119.459201 280.862847,120.067708 282.499132,120.731771 C283.580729,121.155382 284.602431,121.736111 285.707465,122.061632 C286.489583,122.277778 287.204861,122.559896 287.868924,122.951389 C290.396701,124.413194 292.907118,125.875868 295.407118,127.371528 C296.903646,128.261285 298.292535,129.31684 299.572049,130.515625 C300.545139,131.411458 301.567708,132.275174 302.739583,132.915799 C303.269965,133.208333 303.703125,133.688368 304.177951,134.079861 C304.434896,134.289062 304.693576,134.512153 304.958333,134.729167 C306.429688,135.94184 308.026042,136.990451 309.338542,138.41059 C310.735243,139.914931 312.207465,141.344618 313.677951,142.773437 C315.074653,144.138021 316.486111,145.474826 317.68316,147.029514 C318.657118,148.311632 319.679688,149.565972 320.809028,150.705729 C322.994792,152.866319 324.657118,155.43316 326.644965,157.736111 C326.886285,158.018229 327.044271,158.375868 327.250868,158.693576 C328.532986,160.720486 329.679688,162.824653 331.225694,164.677951 C332.305556,165.965278 333.269097,167.320312 334.000868,168.864583 C334.425347,169.779514 335.063368,170.62066 335.638021,171.460069 C335.971354,171.960069 336.537326,172.19184 336.835069,172.174479 C337.125,172.149306 337.684028,171.900174 337.684028,171.900174 L338.746528,171.476562 C338.746528,171.476562 340.15191,170.84375 340.625,170.637153 C341.108507,170.41059 342.038194,169.888889 342.37934,169.581597 C342.719618,169.272569 344.131944,168.300347 344.930556,167.570312 C345.728299,166.838542 347.340278,164.942708 347.340278,164.942708 L348.496528,163.388021 L350.509549,160.047743 C350.509549,160.047743 350.899306,159.290799 350.833333,158.93316" id="Fill-23" fill="#828382"></path>
                <path d="M344.556424,209.046007 C343.743924,206.536458 343.101562,204.166667 342.213542,201.690104 C341.482639,199.678819 340.915799,197.592882 339.975694,195.638889 C339.411458,194.483507 339.104167,193.194444 338.672743,191.982639 C338.440972,191.366319 338.131944,190.791667 337.924479,190.177951 C336.826389,187.019965 335.315104,184.459201 333.809896,181.492188 C333.734375,181.332465 333.659722,181.184896 333.519097,180.927951 C333.377604,180.651042 333.251736,180.394097 332.877604,180.1875 C332.503472,179.969618 332.189236,180.111979 331.514757,180.203993 C330.21875,180.353299 328.605035,180.528646 327.932292,180.528646 C327.334201,180.528646 324.791667,180.719618 322.778646,180.885417 L322.305556,180.743056 L319.845486,180.743056 L313.354167,179.903646 C310.985243,179.554687 305.541667,178.18316 305.541667,178.18316 L301.55816,176.819444 L296.645833,175.132812 L296.264757,175.341146 L288.625,174.734375 L288.376736,174.875868 L284.078993,171.592014 L283.580729,171.56684 L280.895833,169.148437 L280.795139,168.666667 L277.8125,168.208333 L277.530382,168.334201 L275.077257,167.494792 L274.803819,167.237847 L269.184028,167.644097 L264.088542,165.573785 L246.425347,166.506076 L246.142361,166.322917 L242.809028,166.572917 L242.460069,166.838542 L233.765625,167.494792 L233.526042,167.279514 L221.125,174.434896 L220.982639,174.966146 L220.407986,175.473958 L220.125868,175.267361 L213.901042,174.684028 L213.560764,174.834201 L202.538194,174.901042 L202.304688,174.783854 L199.164062,174.684028 L198.207465,174.127604 L186.654514,183.063368 L186.613715,183.277778 L182.564236,186.470486 L178.033854,184.327257 L177.768229,184.459201 L176.090278,183.953125 C176.090278,183.953125 167.769965,186.072917 167.852431,186.130208 C167.926215,186.1875 160.072917,184.899306 160.072917,184.899306 L159.532118,184.459201 L158.059896,185.972222 L154.951389,187.459201 L154.868924,187.726562 L148.659722,192.463542 L139.83941,198.821181 L129.916667,206.203125 L125.444444,209.453993 L125.219618,211.364583 L123.342014,215.721354 L122.52691,219.469618 L121.279514,227.049479 L120.547743,230.325521 L120.275174,234.256076 L119.194444,242.444444 L118.728299,260.365451 L119.210937,261.421007 L119.533854,266.349826 C119.533854,266.349826 119.609375,267.205729 119.809028,267.24566 C119.81684,267.25434 119.825521,267.24566 119.825521,267.25434 L141.793403,244.539931 L149,241.637153 L155.059896,241.322049 L158.71875,237.123264 L159.067708,236.334201 L159.515625,236.542535 L169.398438,235.429687 L169.829861,235.111979 L173.520833,235.111979 L174.078125,235.336806 L175.258681,233.765625 L179.688368,231.03125 L184.43316,227.78125 L197.75,227.955729 L197.841146,228.24566 L203.061632,228.719618 L207.133681,227.915799 L214.599826,220.301215 L214.741319,220.309028 L220.675347,214.665799 L229.584201,213.525174 L229.93316,213.284722 L230.325521,213.667535 L234.955729,215.853299 L235.288194,215.546007 L239.394097,215.056424 L239.592882,214.822917 L243.434028,214.18316 L243.782986,213.96875 L247.971354,217.540799 L248.203993,217.267361 L256.789931,217.109375 L257.513021,216.569444 L264.421007,216.902778 L264.795139,217.050347 L265.859375,216.783854 L266.042535,216.469618 L268.794271,215.230903 L269.118056,215.263021 L272.292535,213.825521 L272.55816,213.550347 L275.950521,212.263021 L276.198785,211.873264 L285.599826,208.272569 L285.675347,208.131944 L287.328993,207.616319 L287.695312,207.251736 L288.166667,207.758681 L290.894097,209.095486 L291.734375,209.12066 L294.792535,210.834201 L294.992188,210.540799 L295.932292,210.102431 L296.032986,210.142361 L297.559896,209.428819 L297.627604,209.320312 L299.822049,208.797743 L305.450521,210.258681 L306.638021,209.994792 L307.668403,210.676215 L311.799479,211.297743 L315.838542,212.861979 C315.838542,212.861979 318.175347,212.6875 318.198785,212.6875 C318.232639,212.6875 318.955729,213.201389 318.955729,213.201389 L319.545139,212.852431 C319.545139,212.852431 327.499132,211.863715 331.499132,211.539931 C334.092882,211.332465 336.668403,211.057292 339.263889,210.800347 C340.723958,210.657986 342.188368,210.525174 343.65191,210.350694 C344.440972,210.251736 344.840278,209.953125 344.556424,209.046007" id="Fill-24" fill="#828382"></path>
                <path d="M350.367188,249.849826 C350.367188,249.302083 350.267361,248.943576 350.232639,248.402778 C350.143229,246.864583 350.076389,245.337674 349.993924,243.790799 C349.96875,243.283854 349.900174,242.77691 349.868056,242.259549 C349.743924,240.349826 349.702257,238.429688 349.510417,236.526042 C349.262153,234.106771 348.913194,231.703993 348.555556,229.310764 C348.273438,227.448785 347.915799,225.595486 347.581597,223.75 C347.223958,221.806424 346.909722,220.033854 346.493924,218.105903 C346.071181,216.145833 345.652778,215.887153 343.643229,216.12066 C343.475694,216.152778 343.301215,216.177083 343.134549,216.212674 C342.395833,216.361111 341.356771,216.460069 340.608507,216.560764 C336.710069,217.06684 333.028646,217.282118 329.12066,217.740451 L317.925347,221.638889 L301.734375,221.215278 L299.979167,220.641493 L299.971354,220.923611 L295.200521,224.448785 L294.53559,224.507812 L290.762153,228.013889 L290.553819,228.496528 L280.862847,229.794271 L272.017361,236.616319 L271.097222,236.592882 L266.381944,239.368924 L264.528646,239.577257 L262.675347,241.138889 L262.193576,240.757812 L253.175347,240.149306 L251.611979,241.91059 L251.645833,242.194444 L243.849826,250.705729 L243.749132,251.196181 L243.450521,251.263021 L233.508681,262.609375 L230.78125,262.634549 L230.55816,262.916667 L222.403646,264.328993 L221.772569,264.295139 C221.772569,264.295139 221.605035,264.669271 221.563368,264.694444 C221.524306,264.719618 208.123264,272.157986 208.123264,272.157986 L202.08941,271.445312 L200.817708,271.901042 L194.800347,271.53559 L188.841146,277.976562 L185.274306,278.700521 L183.263021,278.611111 L181.151042,279.499132 L179.888889,279.364583 L179.953993,279.615451 L172.540799,285.359375 L171.834201,285.499132 L160.263021,294.493924 L160.361979,295.033854 L153.206597,312.355035 L153.497396,313.086806 L141.6875,314.157986 L137.804688,317.500868 L137.439236,318.757812 L142.69184,326.053819 L146.580729,332.006944 L149.932292,336.278646 L155.382812,342.213542 C155.382812,342.213542 155.416667,342.627604 155.533854,342.652778 C155.634549,342.686632 156.256944,342.728299 156.282118,342.760417 C156.315972,342.778646 159.547743,343.858507 159.572917,343.875 C159.58941,343.891493 163.588542,345.131076 163.588542,345.131076 C163.588542,345.131076 163.628472,345.328993 163.678819,345.328993 C163.712674,345.328993 164.078125,345.269965 164.078125,345.269965 L170.753472,347.855035 L171.259549,347.832465 L171.625868,348.273438 C171.625868,348.273438 172.19184,348.273438 172.224826,348.279514 C172.265625,348.288194 173.795139,349.319444 173.795139,349.319444 L176.587674,347.789931 L176.721354,347.798611 L177.976562,346.992188 L188.100694,349.552083 L195.522569,345.753472 L212.014757,344.115451 L218.771701,333.243924 C219.84375,332.171007 221.764757,330.225694 221.764757,330.225694 L222.021701,330.201389 C222.021701,330.201389 224.34809,328.065972 224.390625,328.024306 C224.423611,327.973958 224.390625,327.725694 224.390625,327.725694 L228.638889,323.859375 L230.623264,321.78125 C230.623264,321.78125 231.064236,321.524306 231.123264,321.515625 C231.180556,321.507812 233.409722,319.145833 233.409722,319.145833 L235.244792,317.252604 L235.728299,317.143229 L235.25434,315.46441 L237.166667,308.491319 L240.855035,307.386285 L240.997396,307.244792 L242.102431,306.99566 L242.12066,306.387153 L247.074653,298.341146 L247.539931,298.143229 L249.565972,294.179688 L252.943576,292.276042 L253.391493,291.725694 L254.054688,291.817708 C254.054688,291.817708 256.017361,290.662326 256.075521,290.679688 L256.30816,290.679688 L259.948785,289.074653 L260.247396,288.641493 L272.359375,283.090278 L273.090278,283.014757 L273.223958,282.349826 L273.697917,281.992188 L274.944444,277.762153 L278.774306,276.116319 L283.196181,275.576389 L287.221354,272.790799 L292.957465,273.03125 L293.528646,273.506076 L293.802083,273.148438 L301.815972,269.565972 L301.774306,268.533854 L303.694444,264.861111 L307.626736,263.815104 L307.825521,263.563368 L313.221354,262.425347 L315.289931,259.973958 L315.556424,259.915799 C315.556424,259.915799 316.803819,258.701389 316.837674,258.676215 C316.884549,258.668403 320.544271,259.184896 320.544271,259.184896 L320.735243,259.317708 L322.753472,259.608507 L324.009549,259.749132 C324.009549,259.749132 329.453125,257.197049 331.730903,256.332465 C332.696181,255.958333 333.634549,255.717014 334.532986,255.394097 C335.786458,254.944444 337.042535,254.50434 338.315104,254.079861 C338.954861,253.873264 339.568576,253.705729 340.201389,253.524306 L342.736979,253.05816 L345.6875,252.559028 L347.482639,252.451389 C347.482639,252.451389 348.355035,252.34375 348.677951,252.28559 C349.012153,252.235243 349.510417,252.235243 349.900174,251.886285 C350.291667,251.538194 350.274306,251.171007 350.31684,250.847222 C350.358507,250.506076 350.367188,250.33941 350.367188,249.849826" id="Fill-25" fill="#828382"></path>
                <path d="M350.242188,260.447049 C350.257813,260.024306 350.31684,259.309896 349.96875,258.927951 C349.618056,258.553819 349.177951,258.494792 348.888021,258.503472 C348.605903,258.503472 347.207465,258.684896 347.207465,258.684896 L344.865451,259.042535 C344.59809,259.084201 344.340278,259.125868 344.083333,259.19184 C342.677951,259.533854 341.273438,259.815972 339.894965,260.205729 C338.347222,260.647569 336.769097,261.053819 335.315104,261.703125 C333.767361,262.391493 332.038194,262.932292 330.493924,263.672743 C329.936632,263.930556 324.741319,266.473958 322.363715,267.653646 L319.328993,270.887153 L319.212674,271.585938 L318.813368,271.411458 L316.909722,271.518229 L316.819444,271.669271 L310.626736,273.721354 L310.702257,274.404514 L310.052083,275.03559 L310.046007,275.434896 L307.152778,280.505208 L306.762153,280.529514 L306.6875,281.061632 C306.6875,281.061632 306.097222,282.024306 305.450521,283.115451 L292.423611,291.477431 L292.141493,291.452257 L290.171007,293.105035 L288.792535,298.591146 L287.519965,299.815104 L282.440104,318.615451 L283.122396,320.735243 L275.592882,324.342882 L274.37934,324.342882 L272.94184,330.891493 L272.698785,331.116319 L270.838542,337.059028 L270.946181,337.366319 L270.172743,342.496528 L269.900174,342.852431 L270.148438,343.319444 L262.925347,354.796875 L262.376736,354.96441 L260.605035,357.741319 L260.563368,358.296875 C260.563368,358.296875 254.397569,367.007813 254.388889,366.982639 C254.380208,366.948785 247.872396,370.840278 247.872396,370.840278 L248.228299,371.395833 C248.228299,371.453125 247.888889,374.021701 247.888889,374.021701 L248.453125,374.99566 L247.514757,375.28559 L242.817708,378.072049 L242.303819,377.961806 L235.387153,382.051215 L234.572917,383.340278 C234.572917,383.455729 237.274306,383.748264 237.274306,383.748264 L241.763021,384.105903 L244.813368,384.263021 L248.362847,384.322049 L250.007813,384.388021 L252.684896,384.454861 L255.352431,384.388021 L265.028646,383.223958 L270.779514,382.210069 L275.126736,381.030382 L279.84809,379.648438 L285.84809,377.273438 L286.288194,377.007812 L287.985243,376.05816 C287.985243,376.05816 292.831597,373.491319 295.017361,371.844618 C298.765625,369.019097 302.547743,366.217014 305.955729,362.974826 C307.127604,361.862847 308.282986,360.747396 309.429688,359.610243 C310.52691,358.528646 311.607639,357.432292 312.697917,356.342882 C312.888889,356.15191 313.136285,355.960069 313.228299,355.71875 C313.594618,354.838542 314.301215,354.241319 314.950521,353.565972 C315.388889,353.092882 315.872396,352.644965 316.221354,352.095486 C316.969618,350.923611 318.059896,350.076389 319.021701,349.111111 C319.787326,348.347222 320.500868,347.500868 321.125,346.609375 C322.271701,344.987847 323.337674,343.310764 324.425347,341.65625 C325.872396,339.445313 327.459201,337.309896 328.697049,334.998264 C330.027778,332.528646 331.340278,330.044271 332.736979,327.608507 C333.927083,325.529514 335.138889,323.434896 336.053819,321.233507 C337.55816,317.601562 339.138021,313.993924 340.532986,310.310764 C342.021701,306.395833 343.210069,302.407118 344.274306,298.366319 C345.080729,295.349826 345.546875,292.257812 346.643229,289.331597 C346.783854,288.948785 346.849826,288.533854 346.916667,288.134549 C347.333333,285.675347 347.757812,283.212674 348.138889,280.746528 C348.505208,278.409722 348.837674,276.072917 349.170139,273.739583 C349.403646,272.15191 349.66059,270.556424 349.794271,268.960069 C349.975694,266.739583 350.085069,264.519965 350.177083,262.301215 C350.18316,262.052083 350.208333,261.578993 350.208333,261.578993 C350.208333,261.578993 350.227431,260.872396 350.242188,260.447049" id="Fill-26" fill="#828382"></path>
            </g>
        </g>
    </g>
</svg>